<?xml version="1.0" encoding="utf-8"?>
<!-- Generator: Adobe Illustrator 23.0.4, SVG Export Plug-In . SVG Version: 6.00 Build 0)  -->
<svg version="1.1" id="Layer_1" xmlns="http://www.w3.org/2000/svg" xmlns:xlink="http://www.w3.org/1999/xlink" x="0px" y="0px"
	 viewBox="0 0 1000 1000" style="enable-background:new 0 0 1000 1000;" xml:space="preserve">
<style type="text/css">
	.st0{fill:#FFFFFF;}
	.st1{fill:#242424;}
</style>
<g>
	<path class="st0" d="M146.75,778.78c-0.39,0.2-0.78,0.4-1.17,0.59l9.61,18.01c1.65-0.73,3.35-1.49,5.07-2.28
		C155.63,789.77,151.12,784.33,146.75,778.78z"/>
</g>
<circle class="st1" cx="500" cy="500" r="500"/>
<g>
	<path class="st0" d="M327,293.68c-49.89,5.76-55,9.59-55,63.32v236.64c0,84.42-13.43,128.55-56.28,166.93
		c-21.11,19.19-42.21,29.42-59.48,37.09L146,778.48c36.46-17.91,56.92-47.33,63.96-84.42c5.76-30.7,6.4-67.8,6.4-121.52V357
		c0-53.72-5.76-58.2-58.2-63.32v-17.91H327V293.68z"/>
	<path class="st0" d="M730.57,691.5v-17.91c52.45-5.12,54.36-8.95,53.72-77.39l0.64-260.95C732.48,452.3,648.06,635.21,625.68,691.5
		h-16.63c-21.75-58.2-94.02-234.08-142.63-349.85c-10.87,223.85-11.51,274.38-11.51,286.53c0.64,35.82,16.63,40.93,60.12,45.41
		v17.91H363.45v-17.91c37.1-3.84,52.45-11.51,57.56-46.05c3.84-28.14,4.48-51.17,21.11-284.61c2.56-33.26-3.84-44.13-60.12-49.25
		v-17.91h111.29l141.35,324.26l151.58-324.26h111.93v17.91c-55,6.4-62.04,12.15-60.76,56.92l2.56,245.6
		c2.56,68.43,4.48,71.63,60.76,77.39v17.91H730.57z"/>
</g>
</svg>
