<svg id="Layer_1" data-name="Layer 1" xmlns="http://www.w3.org/2000/svg" viewBox="0 0 59.63 60.23"><defs><style>.cls-1,.cls-2{fill-rule:evenodd;}.cls-2{fill:#ff0;}</style></defs><title>provq-logo-q</title><path class="cls-1" d="M28.67,5.56A24.55,24.55,0,1,0,53.22,30.11,24.56,24.56,0,0,0,28.67,5.56Zm0,42.52a18,18,0,1,1,18-18A18,18,0,0,1,28.67,48.08Z"/><path class="cls-2" d="M35.69,46.66a18,18,0,0,1-21.93-6.51,22.24,22.24,0,0,1,21.93,6.51Z"/><path class="cls-1" d="M10.7,34.61s2.51-1.56,8.13-1.53a32.89,32.89,0,0,1,21.51,9.08c6.62,6.6,12.88,5.65,12.88,5.65v6.63a23.66,23.66,0,0,1-11.95-3.28c-5.37-3.44-10-9.23-17.57-10.88s-10.5,0-10.5,0Z"/></svg>