<?xml version="1.0" encoding="utf-8"?>
<!-- Generator: Adobe Illustrator 23.0.4, SVG Export Plug-In . SVG Version: 6.00 Build 0)  -->
<svg version="1.1" id="Layer_1" xmlns="http://www.w3.org/2000/svg" xmlns:xlink="http://www.w3.org/1999/xlink" x="0px" y="0px"
	 viewBox="0 0 1000 1000" style="enable-background:new 0 0 1000 1000;" xml:space="preserve">
<style type="text/css">
	.st0{fill:#242424;}
	.st1{fill:#FFFFFF;}
</style>
<path class="st0" d="M500,50C251.47,50,50,251.47,50,500c0,105.28,36.16,202.12,96.75,278.78c33.49-16.86,52.34-44.23,58.87-78.66
	c5.4-28.81,6-63.63,6-114.06V383.74c0-50.43-5.4-54.64-54.63-59.44v-16.81h158.49v16.81c-46.82,5.4-51.63,9.01-51.63,59.44v222.13
	c0,79.25-12.61,120.67-52.83,156.69c-17.79,16.17-35.58,25.57-50.76,32.54C242.77,890,364.38,950,500,950
	c248.53,0,450-201.47,450-450S748.53,50,500,50z M694.3,697.72v-16.81c49.23-4.8,51.03-8.4,50.43-72.64l0.6-244.95
	c-49.22,109.87-128.47,281.57-149.48,334.4h-15.61c-20.42-54.63-88.26-219.73-133.88-328.39
	c-10.21,210.12-10.81,257.55-10.81,268.96c0.6,33.62,15.61,38.42,56.43,42.62v16.81H349.7v-16.81c34.82-3.6,49.23-10.8,54.03-43.22
	c3.6-26.42,4.2-48.03,19.81-267.16c2.4-31.22-3.6-41.43-56.43-46.23v-16.81h104.46l132.68,304.38l142.29-304.38H851.6v16.81
	c-51.63,6-58.24,11.41-57.04,53.43l2.41,230.54c2.4,64.24,4.2,67.24,57.03,72.64v16.81H694.3z"/>
<g>
	<path class="st1" d="M146.75,778.78c-0.39,0.2-0.78,0.4-1.17,0.59l9.61,18.01c1.65-0.73,3.35-1.49,5.07-2.28
		C155.63,789.77,151.12,784.33,146.75,778.78z"/>
</g>
</svg>
